<?xml version="1.0" encoding="UTF-8"?>
<svg version="1.1" xmlns="http://www.w3.org/2000/svg" width="612" height="612">
<path d="M0 0 C201.96 0 403.92 0 612 0 C612 201.96 612 403.92 612 612 C410.04 612 208.08 612 0 612 C0 410.04 0 208.08 0 0 Z " fill="#FEFEFE" transform="translate(0,0)"/>
<path d="M0 0 C0.6994396 -0.00311998 1.39887919 -0.00623996 2.11951393 -0.00945449 C4.46875339 -0.01744691 6.81773544 -0.01110613 9.16697693 -0.00482178 C10.84888358 -0.00753107 12.53078905 -0.01109165 14.21269226 -0.01544189 C18.78484662 -0.02457487 23.35691092 -0.02101809 27.9290669 -0.01468372 C32.70742366 -0.00962927 37.48577258 -0.01431355 42.26412964 -0.01745605 C50.28823739 -0.02109697 58.31230835 -0.01629295 66.33641052 -0.0067749 C75.623304 0.00411359 84.91010969 0.00058171 94.19700104 -0.01042771 C102.16136572 -0.01949261 110.12570392 -0.02078989 118.0900721 -0.01555037 C122.85093147 -0.01242675 127.61174953 -0.01203212 132.37260628 -0.01862335 C136.84674329 -0.02438475 141.32076667 -0.02042216 145.79489136 -0.00883484 C147.4404729 -0.00618193 149.08606396 -0.00696404 150.73164177 -0.01136017 C152.97080208 -0.01679225 155.2095939 -0.01001041 157.44873047 0 C158.70400323 0.00075405 159.95927599 0.0015081 161.25258732 0.002285 C164.16087341 0.25396729 164.16087341 0.25396729 166.16087341 2.25396729 C166.36454503 4.89310326 166.44407461 7.42774847 166.43553162 10.06842041 C166.44064255 10.87504623 166.44575348 11.68167206 166.45101929 12.51274109 C166.46495346 15.18697466 166.46395583 17.86095166 166.46165466 20.53521729 C166.46553918 22.38844906 166.46987333 24.24167995 166.47463989 26.09490967 C166.4821101 29.98210535 166.48180481 33.86921022 166.47654724 37.75640869 C166.47074813 42.7470032 166.48769034 47.73722712 166.51089191 52.72776031 C166.52559571 56.55552355 166.52650561 60.38319681 166.52338219 64.21098328 C166.52389698 66.05145503 166.52916415 67.89193161 166.53919411 69.7323761 C166.55147807 72.30167003 166.54481604 74.87023267 166.53318787 77.43951416 C166.5408316 78.20529282 166.54847534 78.97107147 166.55635071 79.76005554 C166.53509521 81.87591553 166.53509521 81.87591553 166.16087341 85.25396729 C162.49529504 87.6976862 160.73805251 87.50746681 156.36643982 87.5146637 C155.67178934 87.51848924 154.97713886 87.52231479 154.26143837 87.52625626 C151.92836109 87.53659433 149.59552954 87.53259267 147.26243591 87.52862549 C145.59200309 87.53297148 143.92157226 87.53815425 142.25114441 87.54411316 C137.70992075 87.5575255 133.1687802 87.55807943 128.62754059 87.55554986 C124.84002573 87.55448181 121.0525278 87.55935916 117.26501656 87.56415528 C108.33250289 87.57525787 99.40003127 87.57568343 90.46751404 87.56964111 C81.24309506 87.56359746 72.01882847 87.57592055 62.7944355 87.59721118 C54.88185717 87.61480456 46.96932745 87.62083219 39.05673027 87.61757344 C34.32766961 87.61575706 29.59871769 87.6184321 24.86967468 87.63228798 C20.42422297 87.64482522 15.97900958 87.64296137 11.53356171 87.62987709 C9.89968537 87.62750289 8.26579248 87.630276 6.63193512 87.63850021 C4.40611245 87.64889854 2.1810998 87.64092384 -0.04469299 87.62818909 C-1.29166962 87.62835683 -2.53864624 87.62852457 -3.82341003 87.6286974 C-6.83912659 87.25396729 -6.83912659 87.25396729 -8.73996925 85.94684982 C-10.62455248 83.04428261 -10.25432358 79.76664137 -10.22731018 76.41778564 C-10.23256714 75.62076736 -10.2378241 74.82374908 -10.24324036 74.00257874 C-10.25645257 71.36612395 -10.24769898 68.73027204 -10.23756409 66.09381104 C-10.23958427 64.26442855 -10.24249525 62.43504684 -10.2462616 60.60566711 C-10.25068643 56.77147759 -10.24424804 52.93749769 -10.23023987 49.10333252 C-10.21313578 44.1811225 -10.22299584 39.25940274 -10.24095726 34.33721066 C-10.25178052 30.56004621 -10.2483557 26.78299866 -10.24057388 23.00583076 C-10.23856846 21.19048569 -10.2410431 19.37513009 -10.24801254 17.55979729 C-10.2556045 15.0264955 -10.24405571 12.49399617 -10.22731018 9.96075439 C-10.23338287 9.20589752 -10.23945557 8.45104065 -10.24571228 7.67330933 C-10.22007751 5.58732605 -10.22007751 5.58732605 -9.83912659 2.25396729 C-6.16258988 -0.19705718 -4.38619104 0.00263402 0 0 Z " fill="#010101" transform="translate(245.83912658691406,325.74603271484375)"/>
<path d="M0 0 C0.99 0 1.98 0 3 0 C21.42979754 27.13667921 22.32476345 52.18768905 21.40045166 84.25360107 C21.28168701 89.0593248 21.24426189 93.86425112 21.20933247 98.67120838 C21.16476858 104.43362396 21.08017956 110.19520204 20.98828125 115.95703125 C20.96563422 117.58714614 20.96563422 117.58714614 20.94252968 119.25019264 C20.89156362 122.30948194 20.8126881 125.36665198 20.72387695 128.42504883 C20.71155029 129.32613373 20.69922363 130.22721863 20.68652344 131.15560913 C20.53926393 135.23455687 20.30071388 137.50199137 18.15228271 141.0599823 C15.14367716 143.77186954 13.16014875 143.6171021 9.15234375 143.59375 C8.17268394 143.59381042 8.17268394 143.59381042 7.17323303 143.59387207 C5.79727516 143.58852651 4.42131709 143.57098403 3.0456543 143.54199219 C0.94029527 143.50005568 -1.16187099 143.5009303 -3.26757812 143.5078125 C-13.43313686 143.42817977 -13.43313686 143.42817977 -15.66352558 141.74345684 C-17.33144416 139.56762466 -17.38747476 138.40758817 -17.41459656 135.68476868 C-17.43028183 134.80345276 -17.4459671 133.92213684 -17.46212769 133.01411438 C-17.46391022 132.0495079 -17.46569275 131.08490143 -17.4675293 130.09106445 C-17.48081772 129.07269501 -17.49410614 128.05432556 -17.50779724 127.00509644 C-17.54660803 123.62441278 -17.56211235 120.24416013 -17.57421875 116.86328125 C-17.5889418 114.50693161 -17.60382138 112.15058294 -17.61885071 109.79423523 C-17.64588598 104.84188092 -17.65939842 99.88967716 -17.66577148 94.93725586 C-17.67658107 88.62809442 -17.73808249 82.32055576 -17.8124876 76.01186848 C-17.86118281 71.13609149 -17.87330957 66.26069429 -17.87583351 61.38469505 C-17.88301425 59.0616997 -17.90329628 56.73870296 -17.93753624 54.41594887 C-18.13620099 39.80954206 -16.86135507 29.42721223 -9 17 C-8.06676984 15.24830765 -7.14570248 13.48992523 -6.25 11.71875 C-5.50197488 10.31144851 -4.75208292 8.90513713 -4 7.5 C-3.60683594 6.76136719 -3.21367187 6.02273437 -2.80859375 5.26171875 C-1.87418712 3.50685752 -0.93739122 1.75326877 0 0 Z " fill="#040404" transform="translate(323,176)"/>
<path d="M0 0 C9.23997552 -0.02312524 18.47994114 -0.04091601 27.71993923 -0.05181217 C32.00999915 -0.05704061 36.30003933 -0.06413753 40.59008789 -0.07543945 C44.726794 -0.08626975 48.86348108 -0.09227714 53.00020027 -0.09487724 C54.58192304 -0.09673124 56.16364471 -0.10035136 57.74535942 -0.10573006 C59.95322838 -0.1129424 62.16101773 -0.11399086 64.36889648 -0.11352539 C65.62798325 -0.115746 66.88707001 -0.11796661 68.18431091 -0.12025452 C71 0 71 0 72 1 C72.10932927 2.73289986 72.14907922 4.47023956 72.16113281 6.20654297 C72.17074036 7.31794647 72.1803479 8.42934998 72.19024658 9.57443237 C72.19449646 10.78479156 72.19874634 11.99515076 72.203125 13.2421875 C72.20882507 14.47663605 72.21452515 15.71108459 72.22039795 16.98294067 C72.2298655 19.60076027 72.23638886 22.21859189 72.24023438 24.83642578 C72.2446286 27.52536524 72.25855173 30.21398553 72.28125 32.90283203 C72.31161301 36.76605047 72.32227181 40.62886325 72.328125 44.4921875 C72.3404718 45.69849823 72.3528186 46.90480896 72.36553955 48.14767456 C72.36253845 49.26538239 72.35953735 50.38309021 72.35644531 51.53466797 C72.36191376 53.01240189 72.36191376 53.01240189 72.36749268 54.51998901 C72 57 72 57 70.88142395 58.8183136 C68.08801147 60.57280256 65.82203977 60.37406835 62.54077148 60.37231445 C61.89005676 60.37596512 61.23934204 60.37961578 60.56890869 60.38337708 C58.41937106 60.39147916 56.27058804 60.37787777 54.12109375 60.36328125 C52.62801616 60.36276266 51.13493788 60.36328032 49.64186096 60.36479187 C46.51382241 60.36470217 43.3860417 60.3542757 40.25805664 60.33618164 C36.24391855 60.31347471 32.23015661 60.31295403 28.21597195 60.31969929 C25.13365827 60.32303657 22.05143073 60.3164141 18.96913338 60.30657005 C17.48872389 60.30271506 16.00830482 60.30157107 14.52789116 60.3031559 C12.46168543 60.30352576 10.39596672 60.29093012 8.32983398 60.2746582 C7.15307602 60.27005081 5.97631805 60.26544342 4.76390076 60.26069641 C2 60 2 60 0 58 C-0.24050903 55.55758667 -0.24050903 55.55758667 -0.22705078 52.44873047 C-0.22689972 51.28767792 -0.22674866 50.12662537 -0.22659302 48.9303894 C-0.21627045 47.67203278 -0.20594788 46.41367615 -0.1953125 45.1171875 C-0.1924826 43.83264679 -0.18965271 42.54810608 -0.18673706 41.22463989 C-0.17909809 37.80837233 -0.15944752 34.39227463 -0.1373291 30.97607422 C-0.11687624 27.49058327 -0.10773655 24.0050649 -0.09765625 20.51953125 C-0.07620175 13.67961769 -0.04206271 6.839817 0 0 Z " fill="#010101" transform="translate(419,177)"/>
<path d="M0 0 C6.54594749 2.54440082 11.55407398 7.05736671 14.71875 13.38671875 C31.05375 13.88171875 31.05375 13.88171875 47.71875 14.38671875 C47.71875 10.75671875 47.71875 7.12671875 47.71875 3.38671875 C48.70875 2.39671875 49.69875 1.40671875 50.71875 0.38671875 C54.06067692 0.63124999 55.32418557 0.99215432 57.71875 3.38671875 C58.1328125 5.76953125 58.1328125 5.76953125 58.34375 8.51171875 C58.45589844 9.87683594 58.45589844 9.87683594 58.5703125 11.26953125 C58.61929688 11.96820313 58.66828125 12.666875 58.71875 13.38671875 C62.73830718 13.58551747 66.7559392 13.73010316 70.77929688 13.82617188 C72.145364 13.86623628 73.51109156 13.92071116 74.87597656 13.99023438 C82.85063239 14.66020176 82.85063239 14.66020176 89.87963867 11.67358398 C91.37926626 9.64429378 92.52384 7.60315755 93.71875 5.38671875 C96.90738473 1.96177267 99.96031054 -0.27339272 104.71875 -0.61328125 C105.95625 -0.73703125 107.19375 -0.86078125 108.46875 -0.98828125 C113.65545804 -0.91951808 117.58947603 1.40582275 121.71875 4.38671875 C127.20283111 10.15203479 128.12037553 14.67732406 127.96875 22.4765625 C127.4337925 28.70380218 124.37913169 32.45128532 119.71875 36.38671875 C114.6091803 39.75289449 109.84259452 41.54238591 103.71875 40.38671875 C97.49343687 38.40166607 93.38855031 34.71611028 89.71875 29.38671875 C88.72875 27.40671875 88.72875 27.40671875 87.71875 25.38671875 C77.81875 25.38671875 67.91875 25.38671875 57.71875 25.38671875 C58.21375 32.31671875 58.21375 32.31671875 58.71875 39.38671875 C60.69875 39.71671875 62.67875 40.04671875 64.71875 40.38671875 C64.71875 44.34671875 64.71875 48.30671875 64.71875 52.38671875 C61.06532606 54.21343072 56.74035841 53.57142597 52.71875 53.57421875 C51.790625 53.58646484 50.8625 53.59871094 49.90625 53.61132812 C49.019375 53.61326172 48.1325 53.61519531 47.21875 53.6171875 C45.99671875 53.62335083 45.99671875 53.62335083 44.75 53.62963867 C42.71875 53.38671875 42.71875 53.38671875 40.71875 51.38671875 C40.5234375 48.78515625 40.5234375 48.78515625 40.59375 45.76171875 C40.61179687 44.75882813 40.62984375 43.7559375 40.6484375 42.72265625 C40.67164063 41.95179688 40.69484375 41.1809375 40.71875 40.38671875 C42.69875 40.05671875 44.67875 39.72671875 46.71875 39.38671875 C46.71875 34.76671875 46.71875 30.14671875 46.71875 25.38671875 C42.248864 25.20249906 37.7921998 25.04358506 33.3215332 24.94726562 C31.80317521 24.90712568 30.28512478 24.85259545 28.76782227 24.78320312 C20.203807 24.0248361 20.203807 24.0248361 12.68676758 27.10205078 C11.43254762 29.15680169 10.61176546 31.15931236 9.71875 33.38671875 C5.31552275 38.37206229 0.36918932 40.08256998 -6.09375 40.82421875 C-12.34849608 40.65614496 -17.46029204 37.25436794 -21.71875 32.88671875 C-25.63741171 26.61686002 -26.32452282 20.66193098 -25.28125 13.38671875 C-22.57302498 6.8715582 -18.57879002 3.29327568 -12.28125 0.38671875 C-8.38036295 -1.56372478 -4.100277 -1.1023005 0 0 Z " fill="#070707" transform="translate(148.28125,116.61328125)"/>
<path d="M0 0 C1.02996094 -0.00128906 2.05992187 -0.00257813 3.12109375 -0.00390625 C4.74724609 0.00189453 4.74724609 0.00189453 6.40625 0.0078125 C7.49035156 0.00394531 8.57445312 0.00007812 9.69140625 -0.00390625 C10.72136719 -0.00261719 11.75132812 -0.00132812 12.8125 0 C14.24045898 0.00169189 14.24045898 0.00169189 15.69726562 0.00341797 C17.90625 0.1328125 17.90625 0.1328125 18.90625 1.1328125 C18.97869053 3.15245449 18.99002188 5.17448374 18.96875 7.1953125 C18.95972656 8.30003906 18.95070313 9.40476562 18.94140625 10.54296875 C18.92980469 11.39761719 18.91820312 12.25226563 18.90625 13.1328125 C16.59625 13.4628125 14.28625 13.7928125 11.90625 14.1328125 C11.90625 18.7528125 11.90625 23.3728125 11.90625 28.1328125 C13.43548096 28.14739502 14.96471191 28.16197754 16.5402832 28.17700195 C22.20409751 28.2348941 27.86751044 28.3121277 33.53100586 28.39526367 C35.98406469 28.42855576 38.43720091 28.4565742 40.89038086 28.47924805 C44.41293378 28.51271479 47.93477465 28.56502765 51.45703125 28.62109375 C53.10714958 28.63067863 53.10714958 28.63067863 54.79060364 28.64045715 C55.81143539 28.66025131 56.83226715 28.68004547 57.8840332 28.70043945 C58.78338089 28.71154251 59.68272858 28.72264557 60.60932922 28.73408508 C63.35895973 29.21139936 64.26079893 29.91112454 65.90625 32.1328125 C66.28125 34.6953125 66.28125 34.6953125 65.90625 37.1328125 C62.66979309 39.29045044 61.73332199 39.39189378 57.99169922 39.43579102 C56.49532425 39.46075401 56.49532425 39.46075401 54.96871948 39.48622131 C53.3561174 39.49884254 53.3561174 39.49884254 51.7109375 39.51171875 C50.60775177 39.52871323 49.50456604 39.5457077 48.36795044 39.56321716 C44.83910864 39.61642339 41.31027923 39.6566875 37.78125 39.6953125 C34.24513933 39.73917235 30.70912218 39.78580706 27.17312622 39.83811951 C24.97078445 39.87019205 22.7683597 39.89704552 20.56588745 39.91835022 C19.07896896 39.93858498 19.07896896 39.93858498 17.56201172 39.95922852 C16.24654861 39.97349632 16.24654861 39.97349632 14.9045105 39.98805237 C12.90727819 39.91372847 12.90727819 39.91372847 11.90625 41.1328125 C11.62335819 43.38696628 11.4585381 45.64121906 11.28515625 47.90625 C10.90625 50.1328125 10.90625 50.1328125 8.90625 53.1328125 C6.46875 53.5078125 6.46875 53.5078125 3.90625 53.1328125 C1.61431206 51.43323534 0.97680954 50.47483773 0.39453125 47.65234375 C0.23177083 45.14583333 0.06901042 42.63932292 -0.09375 40.1328125 C-3.63037065 39.38510849 -6.55769189 39.32718784 -10.09375 40.1328125 C-14.42653922 43.19918633 -17.89859213 46.99205421 -21.46875 50.8828125 C-22.44682482 51.91113644 -23.42727921 52.93720258 -24.41015625 53.9609375 C-26.21527164 55.84727143 -28.0011944 57.74640522 -29.77880859 59.65917969 C-34.25624788 64.44355164 -34.25624788 64.44355164 -36.09375 66.1328125 C-36.75375 66.1328125 -37.41375 66.1328125 -38.09375 66.1328125 C-38.09375 66.7928125 -38.09375 67.4528125 -38.09375 68.1328125 C-40.10546875 70.0078125 -40.10546875 70.0078125 -42.78125 72.1328125 C-43.65136719 72.8340625 -44.52148438 73.5353125 -45.41796875 74.2578125 C-50.5688886 77.86721619 -54.94836762 78.49643233 -61.15625 78.5078125 C-61.86330078 78.53230469 -62.57035156 78.55679688 -63.29882812 78.58203125 C-66.82048988 78.6018716 -68.7139919 78.42906039 -71.52734375 76.234375 C-74.53803451 72.19509413 -74.28745061 68.64396826 -74.33203125 63.765625 C-74.340103 62.93449188 -74.34817474 62.10335876 -74.35649109 61.24703979 C-74.37033071 59.48681728 -74.38105342 57.72656795 -74.38891602 55.96630859 C-74.40613873 53.2751992 -74.45002537 50.58531531 -74.49414062 47.89453125 C-74.50426677 46.18490487 -74.51278312 44.47526805 -74.51953125 42.765625 C-74.53703934 41.96134064 -74.55454742 41.15705627 -74.57258606 40.32839966 C-74.55844558 36.68385551 -74.44661178 34.59245246 -72.19213867 31.65576172 C-68.45650896 28.94455076 -66.14338946 29.01090406 -61.53271484 29.01928711 C-60.85942642 29.01914108 -60.186138 29.01899506 -59.4924469 29.0188446 C-57.26316119 29.01954223 -55.03395865 29.02732761 -52.8046875 29.03515625 C-51.26054937 29.03702096 -49.71641066 29.03844461 -48.17227173 29.03944397 C-44.10504528 29.04326496 -40.03785445 29.05309168 -35.97064209 29.06414795 C-31.8215788 29.07437106 -27.67250975 29.07894352 -23.5234375 29.08398438 C-15.38019015 29.09471431 -7.23697861 29.11230774 0.90625 29.1328125 C0.41125 21.7078125 0.41125 21.7078125 -0.09375 14.1328125 C-2.07375 13.8028125 -4.05375 13.4728125 -6.09375 13.1328125 C-6.12061553 11.15371852 -6.14008375 9.17452279 -6.15625 7.1953125 C-6.16785156 6.09316406 -6.17945313 4.99101562 -6.19140625 3.85546875 C-6.02425922 -0.80459047 -4.16529948 0.00493519 0 0 Z " fill="#080808" transform="translate(195.09375,250.8671875)"/>
<path d="M0 0 C2.77052307 -0.37473011 2.77052307 -0.37473011 6.37719727 -0.3742218 C7.03903047 -0.37819621 7.70086367 -0.38217061 8.38275242 -0.38626546 C10.61085249 -0.39592604 12.83832352 -0.38404836 15.06640625 -0.37231445 C16.65949746 -0.37474119 18.25258714 -0.37845936 19.84567261 -0.38337708 C24.18034182 -0.39280593 28.51478603 -0.38334401 32.84943771 -0.37004495 C37.37822263 -0.35875463 41.90699608 -0.36283608 46.43579102 -0.36479187 C54.04219249 -0.36567562 61.64850497 -0.35457769 69.25488281 -0.33618164 C78.05836247 -0.31501278 86.86171172 -0.31150365 95.66521168 -0.3177436 C104.12170451 -0.32343151 112.57815126 -0.31779838 121.03463745 -0.30657005 C124.63907724 -0.30191645 128.24348892 -0.3010535 131.84793091 -0.3031559 C136.08978772 -0.30503481 140.33151115 -0.29696567 144.57333755 -0.2810955 C146.13344903 -0.2768405 147.69357401 -0.27601023 149.25368881 -0.27878571 C151.37687485 -0.28199077 153.49965813 -0.27296867 155.62280273 -0.26069641 C156.81300522 -0.25864354 158.0032077 -0.25659067 159.22947693 -0.25447559 C162 0 162 0 164 2 C164.19856972 4.87342061 164.27828946 7.62861988 164.25 10.5 C164.25773438 11.28503906 164.26546875 12.07007813 164.2734375 12.87890625 C164.25330787 18.74669213 164.25330787 18.74669213 162 21 C159.22947693 21.25447559 159.22947693 21.25447559 155.62280273 21.26069641 C154.63005293 21.26643473 154.63005293 21.26643473 153.61724758 21.27228898 C151.38928325 21.28264602 149.16157534 21.27862183 146.93359375 21.2746582 C145.34050252 21.27900316 143.74741339 21.28418558 142.15432739 21.29014587 C137.8197156 21.30356956 133.48519082 21.30411088 129.15056229 21.30158257 C125.53697598 21.30051527 121.92340745 21.30538997 118.30982494 21.310188 C109.78824225 21.32129456 101.26670363 21.32171395 92.74511719 21.31567383 C83.94161193 21.30963004 75.13826633 21.32195266 66.33478832 21.3432439 C58.7865735 21.36083086 51.23840963 21.36686592 43.69017506 21.36360615 C39.17742894 21.36178871 34.66479674 21.36447528 30.15206909 21.37832069 C25.91018222 21.39084755 21.66854524 21.38900412 17.42666245 21.37590981 C15.86654452 21.37353329 14.30640929 21.37631688 12.74631119 21.38453293 C10.62297851 21.39491211 8.5004982 21.38697254 6.37719727 21.3742218 C4.59189354 21.37447341 4.59189354 21.37447341 2.77052307 21.37473011 C1.39911415 21.18923871 1.39911415 21.18923871 0 21 C-2.41564046 17.37653931 -2.29781669 14.68396018 -2.25 10.5 C-2.25773438 9.82324219 -2.26546875 9.14648438 -2.2734375 8.44921875 C-2.25884811 4.75080743 -2.10264442 3.15396663 0 0 Z " fill="#0A0A0A" transform="translate(243,475)"/>
<path d="M0 0 C4.56164082 -0.23248586 9.12176219 -0.37448143 13.6875 -0.5 C15.62786133 -0.60054687 15.62786133 -0.60054687 17.60742188 -0.703125 C26.89213124 -0.89505698 26.89213124 -0.89505698 29.82128906 1.47143555 C31.16544878 3.58607355 32.0722109 5.67372457 33 8 C33.88752963 9.61961342 34.7917631 11.23016519 35.7109375 12.83203125 C36.60221779 14.49043989 37.49021825 16.15061522 38.375 17.8125 C38.83777344 18.65748047 39.30054688 19.50246094 39.77734375 20.37304688 C40.20917969 21.18451172 40.64101562 21.99597656 41.0859375 22.83203125 C41.6744751 23.92608276 41.6744751 23.92608276 42.27490234 25.04223633 C43 27 43 27 42 30 C29.79 30.33 17.58 30.66 5 31 C5.33 32.65 5.66 34.3 6 36 C17.88 36.33 29.76 36.66 42 37 C43 41 43 41 42.1015625 42.98046875 C41.61429688 43.70878906 41.12703125 44.43710938 40.625 45.1875 C37.52801823 50.04479452 34.79727004 55.02671549 32.125 60.125 C31.71975098 60.89610107 31.31450195 61.66720215 30.89697266 62.46166992 C29.92899035 64.30656205 28.96415612 66.15310539 28 68 C23.60505939 68.2325602 19.21169714 68.37450074 14.8125 68.5 C12.94368164 68.60054687 12.94368164 68.60054687 11.03710938 68.703125 C2.08856342 68.89505092 2.08856342 68.89505092 -0.79223633 66.52636719 C-2.13633042 64.41289509 -3.05997874 62.32035697 -4 60 C-4.87709007 58.39285511 -5.76952465 56.79400546 -6.67578125 55.203125 C-7.55793833 53.55381798 -8.43682407 51.90275723 -9.3125 50.25 C-9.76689453 49.41339844 -10.22128906 48.57679688 -10.68945312 47.71484375 C-11.11806641 46.90660156 -11.54667969 46.09835938 -11.98828125 45.265625 C-12.37540283 44.54149414 -12.76252441 43.81736328 -13.16137695 43.07128906 C-14 41 -14 41 -14 37 C-11.36 36.67 -8.72 36.34 -6 36 C-6 34.35 -6 32.7 -6 31 C-8.64 30.67 -11.28 30.34 -14 30 C-13.45447409 25.45296782 -12.27216298 22.16138168 -10.05859375 18.1640625 C-9.47529297 17.10058594 -8.89199219 16.03710938 -8.29101562 14.94140625 C-7.67935547 13.84699219 -7.06769531 12.75257813 -6.4375 11.625 C-5.82197266 10.50738281 -5.20644531 9.38976562 -4.57226562 8.23828125 C-3.05595329 5.4877612 -1.53168507 2.74197987 0 0 Z " fill="#040404" transform="translate(187,177)"/>
<path d="M0 0 C2.97 0.495 2.97 0.495 6 1 C6 10.9 6 20.8 6 31 C19.2 31 32.4 31 46 31 C46 21.1 46 11.2 46 1 C51 0 51 0 53 1 C53 10.9 53 20.8 53 31 C66.2 31 79.4 31 93 31 C93 21.1 93 11.2 93 1 C98 0 98 0 100 1 C100 10.9 100 20.8 100 31 C108.84072863 30.96040599 108.84072863 30.96040599 117.68139648 30.90991211 C119.32217163 30.90616577 119.32217163 30.90616577 120.99609375 30.90234375 C122.12200928 30.89710693 123.2479248 30.89187012 124.40795898 30.88647461 C127 31 127 31 128 32 C128.04063832 33.66617115 128.042721 35.33388095 128 37 C125.28598706 38.35700647 123.15153684 38.1123861 120.1171875 38.09765625 C118.95058594 38.09443359 117.78398437 38.09121094 116.58203125 38.08789062 C115.35871094 38.07951172 114.13539063 38.07113281 112.875 38.0625 C111.64394531 38.05798828 110.41289062 38.05347656 109.14453125 38.04882812 C106.09630608 38.0370133 103.04817686 38.02054028 100 38 C100.01047363 38.86802246 100.02094727 39.73604492 100.03173828 40.63037109 C100.06579716 43.84699528 100.09088767 47.06352767 100.10986328 50.28027344 C100.11992877 51.67320781 100.13358234 53.06612102 100.15087891 54.45898438 C100.1751022 56.4595436 100.18540814 58.46025615 100.1953125 60.4609375 C100.20578613 61.66540527 100.21625977 62.86987305 100.22705078 64.11083984 C100 67 100 67 98 69 C96.35 68.67 94.7 68.34 93 68 C93 58.1 93 48.2 93 38 C79.8 38 66.6 38 53 38 C53.07913175 47.45397174 53.07913175 47.45397174 53.18017578 56.90771484 C53.1851709 58.08027832 53.19016602 59.2528418 53.1953125 60.4609375 C53.20578613 61.66540527 53.21625977 62.86987305 53.22705078 64.11083984 C53 67 53 67 51 69 C49.35 68.67 47.7 68.34 46 68 C46 58.1 46 48.2 46 38 C32.8 38 19.6 38 6 38 C6.07913175 47.45397174 6.07913175 47.45397174 6.18017578 56.90771484 C6.1851709 58.08027832 6.19016602 59.2528418 6.1953125 60.4609375 C6.21102295 62.26763916 6.21102295 62.26763916 6.22705078 64.11083984 C6 67 6 67 4 69 C2.35 68.67 0.7 68.34 -1 68 C-1 58.1 -1 48.2 -1 38 C-10.24 38 -19.48 38 -29 38 C-30 33 -30 33 -29 31 C-19.76 31 -10.52 31 -1 31 C-1.01160156 28.84597656 -1.02320313 26.69195312 -1.03515625 24.47265625 C-1.04294737 22.39428861 -1.04902381 20.31592257 -1.05493164 18.23754883 C-1.05997101 16.78929927 -1.06680253 15.34105483 -1.07543945 13.89282227 C-1.08752247 11.81525412 -1.09323211 9.73775303 -1.09765625 7.66015625 C-1.10289307 6.40855713 -1.10812988 5.15695801 -1.11352539 3.86743164 C-1 1 -1 1 0 0 Z " fill="#EEEEEE" transform="translate(275,335)"/>
<path d="M0 0 C1.47583955 0.0001591 2.95168467 0.00585225 4.42749023 0.01586914 C5.20293686 0.01728409 5.97838348 0.01869904 6.77732849 0.02015686 C9.26361893 0.02577194 11.74982059 0.03832693 14.23608398 0.05102539 C15.91772331 0.05603845 17.59936405 0.06060169 19.28100586 0.06469727 C23.41189965 0.07574626 27.54272674 0.09302094 31.67358398 0.11352539 C32.82879214 2.4239417 32.80609056 3.76118202 32.81884766 6.33203125 C32.82522751 7.2031102 32.83160736 8.07418915 32.83818054 8.97166443 C32.83929337 9.91437698 32.84040619 10.85708954 32.84155273 11.82836914 C32.84654533 13.27839073 32.84654533 13.27839073 32.85163879 14.75770569 C32.85670716 16.80461144 32.85904715 18.85152548 32.85888672 20.8984375 C32.86107262 24.03472468 32.87922773 27.17065989 32.89819336 30.30688477 C32.90112737 32.29321168 32.90311212 34.27954028 32.90405273 36.26586914 C32.91123825 37.20655746 32.91842377 38.14724579 32.92582703 39.11643982 C32.9227504 39.99067093 32.91967377 40.86490204 32.91650391 41.765625 C32.91792892 42.53458603 32.91935394 43.30354706 32.92082214 44.09580994 C32.67358398 46.11352539 32.67358398 46.11352539 30.67358398 49.11352539 C27.55664062 49.48583984 27.55664062 49.48583984 23.58374023 49.47680664 C22.88341171 49.47730515 22.18308319 49.47780365 21.46153259 49.47831726 C19.97953456 49.47597571 18.49753264 49.46624224 17.015625 49.44970703 C14.74825397 49.42615182 12.48206157 49.42914012 10.21459961 49.43579102 C-0.90766798 49.39269075 -0.90766798 49.39269075 -4.32641602 47.11352539 C-4.69390869 45.13340759 -4.69390869 45.13340759 -4.68286133 42.6796875 C-4.68586243 41.76211166 -4.68886353 40.84453583 -4.69195557 39.89915466 C-4.67960876 38.90642044 -4.66726196 37.91368622 -4.65454102 36.89086914 C-4.65266785 35.87505264 -4.65079468 34.85923615 -4.64886475 33.81263733 C-4.64213497 31.66314416 -4.62820225 29.51366342 -4.60766602 27.36425781 C-4.57651165 24.06116452 -4.5666971 20.75854789 -4.56079102 17.45532227 C-4.55162151 15.37133203 -4.54124591 13.28734668 -4.52954102 11.20336914 C-4.52529114 10.20861069 -4.52104126 9.21385223 -4.5166626 8.18894958 C-4.50705505 7.27452591 -4.49744751 6.36010223 -4.48754883 5.41796875 C-4.48072083 4.60903671 -4.47389282 3.80010468 -4.46685791 2.96665955 C-4.21583714 -0.34556553 -3.41540275 0.11656237 0 0 Z " fill="#040404" transform="translate(310.326416015625,419.886474609375)"/>
<path d="M0 0 C1.00489471 -0.00503792 1.00489471 -0.00503792 2.03009033 -0.01017761 C4.25518626 -0.01971353 6.48020715 -0.02163204 8.70532227 -0.02270508 C10.24609916 -0.02591586 11.78687574 -0.02927979 13.32765198 -0.03279114 C16.56170356 -0.03878904 19.7957284 -0.04063037 23.02978516 -0.04003906 C27.18070372 -0.03993741 31.33145134 -0.05358986 35.48232937 -0.07081127 C38.66584567 -0.08191173 41.8493204 -0.08395887 45.03285408 -0.08342934 C46.56351371 -0.0846124 48.09417431 -0.08905236 49.62481499 -0.0967617 C51.7630204 -0.10652232 53.90085149 -0.10369938 56.0390625 -0.09765625 C57.25738266 -0.09908127 58.47570282 -0.10050629 59.73094177 -0.10197449 C62.58422852 0.14526367 62.58422852 0.14526367 64.58422852 2.14526367 C64.81469727 4.49291992 64.81469727 4.49291992 64.77172852 7.20776367 C64.7652832 8.10624023 64.75883789 9.0047168 64.75219727 9.93041992 C64.58422852 12.14526367 64.58422852 12.14526367 63.58422852 13.14526367 C61.41160171 13.24482645 59.23569746 13.27326086 57.06079102 13.2746582 C56.37950134 13.27641052 55.69821167 13.27816284 54.99627686 13.27996826 C52.73390185 13.28438609 50.47160438 13.28144905 48.20922852 13.27807617 C46.64363591 13.27874923 45.07804341 13.27971927 43.51245117 13.28097534 C40.22712207 13.28245222 36.9418201 13.28029808 33.65649414 13.27563477 C29.43602336 13.26993748 25.21561615 13.27321653 20.99514771 13.27920723 C17.7610628 13.28281311 14.52699307 13.28167413 11.29290771 13.27907944 C9.7363077 13.27841024 8.17970633 13.27923833 6.62310791 13.28155899 C4.45125656 13.28408597 2.27950956 13.28024432 0.10766602 13.2746582 C-1.13063965 13.27386261 -2.36894531 13.27306702 -3.64477539 13.27224731 C-6.41577148 13.14526367 -6.41577148 13.14526367 -7.41577148 12.14526367 C-7.51428319 10.31410484 -7.54549777 8.47906434 -7.54077148 6.64526367 C-7.54334961 5.64495117 -7.54592773 4.64463867 -7.54858398 3.61401367 C-7.28715153 -1.24555422 -4.20849901 0.01317587 0 0 Z " fill="#030303" transform="translate(426.415771484375,156.854736328125)"/>
<path d="M0 0 C2.97 0.495 2.97 0.495 6 1 C6 10.9 6 20.8 6 31 C19.2 31 32.4 31 46 31 C46 31.33 46 31.66 46 32 C34.12 32.33 22.24 32.66 10 33 C10 34.32 10 35.64 10 37 C21.88 37 33.76 37 46 37 C46 37.33 46 37.66 46 38 C32.8 38 19.6 38 6 38 C6.07913175 47.45397174 6.07913175 47.45397174 6.18017578 56.90771484 C6.1851709 58.08027832 6.19016602 59.2528418 6.1953125 60.4609375 C6.21102295 62.26763916 6.21102295 62.26763916 6.22705078 64.11083984 C6 67 6 67 4 69 C2.35 68.67 0.7 68.34 -1 68 C-1 58.1 -1 48.2 -1 38 C-10.24 38 -19.48 38 -29 38 C-30 33 -30 33 -29 31 C-19.76 31 -10.52 31 -1 31 C-1.01160156 28.84597656 -1.02320313 26.69195312 -1.03515625 24.47265625 C-1.04294737 22.39428861 -1.04902381 20.31592257 -1.05493164 18.23754883 C-1.05997101 16.78929927 -1.06680253 15.34105483 -1.07543945 13.89282227 C-1.08752247 11.81525412 -1.09323211 9.73775303 -1.09765625 7.66015625 C-1.10289307 6.40855713 -1.10812988 5.15695801 -1.11352539 3.86743164 C-1 1 -1 1 0 0 Z " fill="#E9E9E9" transform="translate(275,335)"/>
<path d="M0 0 C0.99773437 -0.00315216 1.99546875 -0.00630432 3.0234375 -0.009552 C4.65152344 -0.00651566 4.65152344 -0.00651566 6.3125 -0.00341797 C7.41851562 -0.00437469 8.52453125 -0.00533142 9.6640625 -0.00631714 C12.00781308 -0.00699913 14.35156553 -0.00514351 16.6953125 -0.00097656 C20.29691788 0.00437139 23.89839853 -0.00092093 27.5 -0.00732422 C29.77083361 -0.00666344 32.04166714 -0.00538229 34.3125 -0.00341797 C35.94058594 -0.00645432 35.94058594 -0.00645432 37.6015625 -0.009552 C38.59929687 -0.00639984 39.59703125 -0.00324768 40.625 0 C41.50800781 0.00079559 42.39101563 0.00159119 43.30078125 0.00241089 C45.3125 0.12939453 45.3125 0.12939453 46.3125 1.12939453 C46.4370486 2.77169817 46.48818524 4.41991729 46.5 6.06689453 C46.51417969 6.96279297 46.52835937 7.85869141 46.54296875 8.78173828 C46.3125 11.12939453 46.3125 11.12939453 44.3125 13.12939453 C42.2184906 13.37663269 42.2184906 13.37663269 39.60327148 13.37231445 C38.13681435 13.3769294 38.13681435 13.3769294 36.64073181 13.38163757 C35.58237625 13.37445206 34.52402069 13.36726654 33.43359375 13.35986328 C31.8099868 13.35917595 31.8099868 13.35917595 30.15357971 13.35847473 C27.86287339 13.35545012 25.57216916 13.34755762 23.28149414 13.33520508 C19.76115697 13.31695238 16.24108266 13.31469531 12.72070312 13.31494141 C10.49999771 13.31002628 8.27929409 13.30419799 6.05859375 13.29736328 C4.99821396 13.29625046 3.93783417 13.29513763 2.84532166 13.29399109 C1.87083572 13.28761124 0.89634979 13.28123138 -0.10766602 13.2746582 C-1.40100609 13.26894051 -1.40100609 13.26894051 -2.72047424 13.2631073 C-4.6875 13.12939453 -4.6875 13.12939453 -5.6875 12.12939453 C-5.78601171 10.2982357 -5.81722629 8.4631952 -5.8125 6.62939453 C-5.81507813 5.62908203 -5.81765625 4.62876953 -5.8203125 3.59814453 C-5.58998586 -0.6832212 -3.82349962 0.00344499 0 0 Z " fill="#090909" transform="translate(434.6875,282.87060546875)"/>
<path d="M0 0 C0.97448593 -0.00315216 1.94897186 -0.00630432 2.95298767 -0.009552 C4.01336746 -0.00752777 5.07374725 -0.00550354 6.16625977 -0.00341797 C7.24770767 -0.00437469 8.32915558 -0.00533142 9.44337463 -0.00631714 C11.73585061 -0.00699918 14.02832849 -0.00514324 16.32080078 -0.00097656 C19.83899257 0.00436617 23.35705638 -0.00091811 26.87524414 -0.00732422 C29.09724963 -0.00666334 31.31925504 -0.00538198 33.54125977 -0.00341797 C35.12879311 -0.00645432 35.12879311 -0.00645432 36.74839783 -0.009552 C37.72603592 -0.00639984 38.70367401 -0.00324768 39.7109375 0 C41.00547096 0.00119339 41.00547096 0.00119339 42.32615662 0.00241089 C44.42016602 0.12939453 44.42016602 0.12939453 46.42016602 1.12939453 C46.44714791 2.75430407 46.46655359 4.37934087 46.48266602 6.00439453 C46.49426758 6.90931641 46.50586914 7.81423828 46.51782227 8.74658203 C46.42016602 11.12939453 46.42016602 11.12939453 45.42016602 13.12939453 C38.31771602 13.15466241 31.21527754 13.17222654 24.11279297 13.18432617 C21.69449429 13.18936802 19.27619868 13.19620131 16.85791016 13.20483398 C13.39037318 13.2169061 9.92287635 13.22262416 6.45532227 13.22705078 C5.36679459 13.23221207 4.27826691 13.23737335 3.15675354 13.24269104 C1.65531044 13.24280434 1.65531044 13.24280434 0.12353516 13.24291992 C-1.20550087 13.24625084 -1.20550087 13.24625084 -2.56138611 13.24964905 C-4.57983398 13.12939453 -4.57983398 13.12939453 -5.57983398 12.12939453 C-5.67834569 10.2982357 -5.70956027 8.4631952 -5.70483398 6.62939453 C-5.70741211 5.62908203 -5.70999023 4.62876953 -5.71264648 3.59814453 C-5.48452791 -0.64217717 -3.79269555 0.00349959 0 0 Z " fill="#020202" transform="translate(434.579833984375,262.87060546875)"/>
<path d="M0 0 C0.99773437 -0.00315216 1.99546875 -0.00630432 3.0234375 -0.009552 C4.65152344 -0.00651566 4.65152344 -0.00651566 6.3125 -0.00341797 C7.41851562 -0.00437469 8.52453125 -0.00533142 9.6640625 -0.00631714 C12.00781308 -0.00699913 14.35156553 -0.00514351 16.6953125 -0.00097656 C20.29691788 0.00437139 23.89839853 -0.00092093 27.5 -0.00732422 C29.77083361 -0.00666344 32.04166714 -0.00538229 34.3125 -0.00341797 C35.94058594 -0.00645432 35.94058594 -0.00645432 37.6015625 -0.009552 C38.59929687 -0.00639984 39.59703125 -0.00324768 40.625 0 C41.50800781 0.00079559 42.39101563 0.00159119 43.30078125 0.00241089 C45.3125 0.12939453 45.3125 0.12939453 46.3125 1.12939453 C46.41073937 2.79368505 46.44223631 4.46221384 46.4375 6.12939453 C46.44136719 7.49064453 46.44136719 7.49064453 46.4453125 8.87939453 C46.3125 11.12939453 46.3125 11.12939453 45.3125 12.12939453 C43.75250952 12.2278642 42.18809456 12.25738071 40.625 12.25878906 C39.62726563 12.26194122 38.62953125 12.26509338 37.6015625 12.26834106 C36.51617187 12.26631683 35.43078125 12.2642926 34.3125 12.26220703 C33.20648438 12.26316376 32.10046875 12.26412048 30.9609375 12.2651062 C28.61718692 12.2657882 26.27343447 12.26393257 23.9296875 12.25976562 C20.32808212 12.25441767 16.72660147 12.25971 13.125 12.26611328 C10.85416639 12.2654525 8.58333286 12.26417135 6.3125 12.26220703 C5.22710937 12.26423126 4.14171875 12.26625549 3.0234375 12.26834106 C2.02570313 12.2651889 1.02796875 12.26203674 0 12.25878906 C-0.88300781 12.25799347 -1.76601563 12.25719788 -2.67578125 12.25637817 C-4.6875 12.12939453 -4.6875 12.12939453 -5.6875 11.12939453 C-5.78573937 9.46510402 -5.81723631 7.79657522 -5.8125 6.12939453 C-5.81507813 5.22189453 -5.81765625 4.31439453 -5.8203125 3.37939453 C-5.57873368 -0.71323493 -3.6123384 0.00325473 0 0 Z " fill="#020202" transform="translate(434.6875,243.87060546875)"/>
<path d="M0 0 C1.07451416 -0.00630432 2.14902832 -0.01260864 3.25610352 -0.019104 C5.00298462 -0.01303131 5.00298462 -0.01303131 6.78515625 -0.00683594 C7.97616943 -0.00874939 9.16718262 -0.01066284 10.39428711 -0.01263428 C12.91618053 -0.01399724 15.43808094 -0.0102931 17.95996094 -0.00195312 C21.83153974 0.00874453 25.70265447 -0.00184499 29.57421875 -0.01464844 C32.01953228 -0.01332686 34.46484552 -0.01076451 36.91015625 -0.00683594 C38.07474365 -0.0108844 39.23933105 -0.01493286 40.43920898 -0.019104 C42.05098022 -0.00964752 42.05098022 -0.00964752 43.6953125 0 C45.11855835 0.00238678 45.11855835 0.00238678 46.57055664 0.00482178 C48.84765625 0.25878906 48.84765625 0.25878906 50.84765625 2.25878906 C51.20446239 5.04187692 51.33546811 6.59537434 49.64477539 8.89468384 C47.25268536 10.71040236 45.76843692 10.63912105 42.78125 10.64697266 C41.23449585 10.66115738 41.23449585 10.66115738 39.65649414 10.67562866 C38.54395264 10.66955597 37.43141113 10.66348328 36.28515625 10.65722656 C35.14232178 10.66009674 33.9994873 10.66296692 32.82202148 10.66592407 C30.4044546 10.66796663 27.98687126 10.66242344 25.56933594 10.64990234 C21.8622554 10.63385227 18.15626525 10.64974547 14.44921875 10.66894531 C12.10286217 10.66696292 9.75650627 10.66311932 7.41015625 10.65722656 C5.74134399 10.6663356 5.74134399 10.6663356 4.03881836 10.67562866 C3.00764893 10.66617218 1.97647949 10.6567157 0.9140625 10.64697266 C-0.44803345 10.64339249 -0.44803345 10.64339249 -1.83764648 10.63973999 C-4.60794042 10.18380735 -5.50474381 9.49949321 -7.15234375 7.25878906 C-7.46484375 4.69628906 -7.46484375 4.69628906 -7.15234375 2.25878906 C-4.57675247 -0.31680221 -3.57917695 0.00600227 0 0 Z " fill="#0E0E0E" transform="translate(358.15234375,205.7412109375)"/>
<path d="M0 0 C1.07458969 -0.00637985 2.14917938 -0.0127597 3.2563324 -0.01933289 C4.42608109 -0.02044571 5.59582977 -0.02155853 6.80102539 -0.02270508 C7.99345352 -0.02603348 9.18588165 -0.02936188 10.41444397 -0.03279114 C12.94230767 -0.03786549 15.47017809 -0.04019931 17.99804688 -0.04003906 C21.87844818 -0.04222493 25.7585651 -0.06037389 29.63891602 -0.0793457 C32.08878483 -0.08227956 34.538655 -0.08426441 36.98852539 -0.08520508 C38.74011208 -0.09598335 38.74011208 -0.09598335 40.52708435 -0.10697937 C42.14369713 -0.10236443 42.14369713 -0.10236443 43.79296875 -0.09765625 C45.22073891 -0.09979378 45.22073891 -0.09979378 46.67735291 -0.10197449 C48.96118164 0.14526367 48.96118164 0.14526367 50.96118164 2.14526367 C50.71118164 5.70776367 50.71118164 5.70776367 49.96118164 9.14526367 C47.47989825 10.38590537 45.7842857 10.29224493 43.00830078 10.32226562 C41.97705582 10.33510086 40.94581085 10.3479361 39.88331604 10.36116028 C38.76561325 10.36854721 37.64791046 10.37593414 36.49633789 10.38354492 C35.35208847 10.39161667 34.20783905 10.39968842 33.02891541 10.40800476 C30.60539265 10.42185134 28.18185035 10.43257091 25.75830078 10.44042969 C22.04235243 10.45767701 18.32728561 10.5015633 14.61157227 10.5456543 C12.26066737 10.5557778 9.90975489 10.56429497 7.55883789 10.57104492 C6.44315933 10.58855301 5.32748077 10.6060611 4.17799377 10.62409973 C3.14359665 10.62117416 2.10919952 10.6182486 1.04345703 10.61523438 C0.13237686 10.62110062 -0.77870331 10.62696686 -1.71739197 10.63301086 C-4.03881836 10.14526367 -4.03881836 10.14526367 -5.87208557 8.28385925 C-7.03881836 6.14526367 -7.03881836 6.14526367 -6.78881836 3.45776367 C-5.47426052 -0.59545634 -4.03860178 0.01618665 0 0 Z " fill="#0D0D0D" transform="translate(246.038818359375,205.854736328125)"/>
<path d="M0 0 C0.70085073 -0.00170885 1.40170146 -0.0034177 2.12379009 -0.00517833 C4.47771562 -0.00847874 6.83135758 0.00253936 9.18525696 0.01345825 C10.87040704 0.01402225 12.55555761 0.01370603 14.2407074 0.01257324 C18.82100504 0.01199827 23.40119841 0.02377588 27.98147178 0.03772116 C32.76609506 0.05020452 37.55072061 0.05139712 42.33535767 0.05377197 C51.3982269 0.05999379 60.46104802 0.0764141 69.52389604 0.09647095 C79.84057032 0.11880813 90.15724687 0.12981789 100.4739393 0.13986182 C121.69845814 0.16077972 142.92293362 0.19596932 164.14741516 0.24050903 C164.14741516 0.57050903 164.14741516 0.90050903 164.14741516 1.24050903 C163.27312426 1.24381918 162.39883335 1.24712933 161.49804878 1.25053978 C140.25040717 1.33166723 119.00283764 1.4237257 97.75529671 1.52803612 C87.48025637 1.57821413 77.20522422 1.62465634 66.93013 1.66238403 C57.97710765 1.69526679 49.0241479 1.7350772 40.07119453 1.78329909 C35.32819302 1.80860118 30.58523322 1.83037138 25.84218216 1.843853 C21.38200634 1.85663984 16.92197333 1.8786573 12.46187592 1.90789223 C10.82114832 1.91699455 9.1803977 1.92266438 7.53964615 1.92472267 C5.30686054 1.9280266 3.07448447 1.94345232 0.84178162 1.96203613 C-0.41001326 1.96756689 -1.66180813 1.97309765 -2.95153618 1.97879601 C-5.97880247 1.93958369 -5.97880247 1.93958369 -7.85258484 4.24050903 C-8.0698881 6.79816245 -8.16396693 9.25088266 -8.1714325 11.81130981 C-8.18147812 12.59188751 -8.19152374 13.37246521 -8.20187378 14.17669678 C-8.23282477 16.76306403 -8.24977376 19.34932723 -8.26664734 21.93582153 C-8.28534943 23.72659203 -8.30492211 25.51735363 -8.32533264 27.30810547 C-8.37676128 32.02628341 -8.4163294 36.74448995 -8.45347595 41.46279907 C-8.4934485 46.27549375 -8.54457154 51.08806835 -8.59477234 55.90066528 C-8.69165861 65.34719564 -8.77602258 74.79379363 -8.85258484 84.24050903 C-9.18258484 84.24050903 -9.51258484 84.24050903 -9.85258484 84.24050903 C-9.92199254 73.58362019 -9.97534903 62.92678481 -10.00802135 52.26971626 C-10.02369979 47.3215857 -10.04497761 42.37360939 -10.0789032 37.42556763 C-10.11141924 32.65342562 -10.12942143 27.88143229 -10.13721657 23.10918808 C-10.14277407 21.2854465 -10.15362603 19.46171337 -10.16977501 17.63803482 C-10.19144651 15.09014333 -10.19455613 12.54287188 -10.19316101 9.99490356 C-10.20933975 8.85554855 -10.20933975 8.85554855 -10.22584534 7.69317627 C-10.21334839 5.59405518 -10.21334839 5.59405518 -9.85258484 2.24050903 C-6.1703364 -0.21432326 -4.39319628 -0.00643692 0 0 Z " fill="#262626" transform="translate(245.8525848388672,325.7594909667969)"/>
<path d="M0 0 C1.65 0.33 3.3 0.66 5 1 C5 9.58 5 18.16 5 27 C3.02 27 1.04 27 -1 27 C-1.02886537 22.68751391 -1.04675255 18.37505238 -1.0625 14.0625 C-1.07087891 12.83080078 -1.07925781 11.59910156 -1.08789062 10.33007812 C-1.09111328 9.16025391 -1.09433594 7.99042969 -1.09765625 6.78515625 C-1.10289307 5.70113525 -1.10812988 4.61711426 -1.11352539 3.50024414 C-1 1 -1 1 0 0 Z " fill="#F9F9F9" transform="translate(369,335)"/>
<path d="M0 0 C16.17 0 32.34 0 49 0 C49 0.33 49 0.66 49 1 C48.41784225 1.01030746 47.83568451 1.02061493 47.23588562 1.03123474 C41.18521866 1.13928566 35.13470105 1.25388492 29.08422852 1.37231445 C26.82514567 1.4156678 24.56602997 1.45734258 22.30688477 1.49731445 C19.06256196 1.55500713 15.8184046 1.61870469 12.57421875 1.68359375 C11.05534309 1.70866249 11.05534309 1.70866249 9.50578308 1.73423767 C8.56503433 1.75418289 7.62428558 1.77412811 6.6550293 1.79467773 C5.82674118 1.81022202 4.99845306 1.8257663 4.14506531 1.84178162 C1.81446753 1.92540723 1.81446753 1.92540723 -1 3 C-0.67 2.01 -0.34 1.02 0 0 Z " fill="#2C2C2C" transform="translate(430,263)"/>
<path d="M0 0 C0.99 0 1.98 0 3 0 C3 0.66 3 1.32 3 2 C2.01 2.495 2.01 2.495 1 3 C0.67 16.53 0.34 30.06 0 44 C-0.33 44 -0.66 44 -1 44 C-1.02464513 37.8944529 -1.04283371 31.78893449 -1.05493164 25.68334961 C-1.05997288 23.60456844 -1.06680574 21.52579084 -1.07543945 19.44702148 C-1.08751422 16.46597414 -1.09323024 13.48497351 -1.09765625 10.50390625 C-1.10539818 9.10078941 -1.10539818 9.10078941 -1.11329651 7.66932678 C-1.11337204 6.80850998 -1.11344757 5.94769318 -1.11352539 5.06079102 C-1.115746 4.29912125 -1.11796661 3.53745148 -1.12025452 2.75270081 C-1 1 -1 1 0 0 Z " fill="#0D0D0D" transform="translate(307,420)"/>
<path d="M0 0 C0.33 1.32 0.66 2.64 1 4 C0.01 4.33 -0.98 4.66 -2 5 C-3.35500919 6.31129922 -4.68671343 7.64691687 -6 9 C-7.31558703 10.02323436 -8.64377755 11.03126968 -10 12 C-10.66 11.67 -11.32 11.34 -12 11 C-10.71034824 9.62437146 -9.37310707 8.29233607 -8 7 C-7.34 7 -6.68 7 -6 7 C-6 6.34 -6 5.68 -6 5 C-4.04072937 3.2856382 -2.04119788 1.61594832 0 0 Z " fill="#DADADA" transform="translate(163,312)"/>
<path d="M0 0 C0 2 0 2 -1.1875 3.3125 C-1.785625 3.869375 -2.38375 4.42625 -3 5 C-3.886875 5.886875 -4.77375 6.77375 -5.6875 7.6875 C-6.450625 8.450625 -7.21375 9.21375 -8 10 C-8.66 9.34 -9.32 8.68 -10 8 C-8.71451591 6.66070495 -7.42141845 5.32871357 -6.125 4 C-5.04605469 2.88625 -5.04605469 2.88625 -3.9453125 1.75 C-2 0 -2 0 0 0 Z " fill="#F0F0F0" transform="translate(175,302)"/>
<path d="M0 0 C0.33 0 0.66 0 1 0 C1 3.63 1 7.26 1 11 C1.66 11.33 2.32 11.66 3 12 C1.8125 13.5 1.8125 13.5 0 15 C-2.6875 15.1875 -2.6875 15.1875 -5 15 C-5 14.34 -5 13.68 -5 13 C-3.35 12.67 -1.7 12.34 0 12 C0 8.04 0 4.08 0 0 Z " fill="#BABABA" transform="translate(213,157)"/>
<path d="M0 0 C1.2065625 0.0309375 1.2065625 0.0309375 2.4375 0.0625 C1.4475 0.7225 0.4575 1.3825 -0.5625 2.0625 C-1.36791207 5.17061287 -1.36791207 5.17061287 -1.75 8.6875 C-1.90855469 9.87601562 -2.06710938 11.06453125 -2.23046875 12.2890625 C-2.34003906 13.20429688 -2.44960937 14.11953125 -2.5625 15.0625 C-2.8925 15.0625 -3.2225 15.0625 -3.5625 15.0625 C-3.58935412 12.75006208 -3.60882841 10.4375373 -3.625 8.125 C-3.63660156 6.83722656 -3.64820313 5.54945313 -3.66015625 4.22265625 C-3.53232863 0.08615436 -3.53232863 0.08615436 0 0 Z " fill="#C6C6C6" transform="translate(209.5625,263.9375)"/>
<path d="M0 0 C0.33 0 0.66 0 1 0 C1.042721 1.66611905 1.04063832 3.33382885 1 5 C0 6 0 6 -3.5625 6.0625 C-4.696875 6.041875 -5.83125 6.02125 -7 6 C-6.360625 5.896875 -5.72125 5.79375 -5.0625 5.6875 C-4.381875 5.460625 -3.70125 5.23375 -3 5 C-2.67 4.01 -2.34 3.02 -2 2 C-1.34 2 -0.68 2 0 2 C0 1.34 0 0.68 0 0 Z " fill="#E5E5E5" transform="translate(181,208)"/>
<path d="M0 0 C1.32 0.33 2.64 0.66 4 1 C4 1.66 4 2.32 4 3 C4.66 3 5.32 3 6 3 C5.67 3.99 5.34 4.98 5 6 C4.01 5.67 3.02 5.34 2 5 C0.8125 2.4375 0.8125 2.4375 0 0 Z " fill="#151515" transform="translate(176,223)"/>
<path d="M0 0 C1.2065625 0.0309375 1.2065625 0.0309375 2.4375 0.0625 C1.7775 0.7225 1.1175 1.3825 0.4375 2.0625 C0.1075 2.7225 -0.2225 3.3825 -0.5625 4.0625 C-1.5525 4.0625 -2.5425 4.0625 -3.5625 4.0625 C-3.8925 4.7225 -4.2225 5.3825 -4.5625 6.0625 C-3.48963568 0.08511307 -3.48963568 0.08511307 0 0 Z " fill="#2B2B2B" transform="translate(243.5625,205.9375)"/>
<path d="M0 0 C1.65 0 3.3 0 5 0 C4.67 0.99 4.34 1.98 4 3 C0.9375 4.1875 0.9375 4.1875 -2 5 C-1.34 3.35 -0.68 1.7 0 0 Z " fill="#151515" transform="translate(187,177)"/>
</svg>
